<svg width="16" height="20" viewBox="0 0 16 20" version="1.1" xmlns="http://www.w3.org/2000/svg" xmlns:xlink="http://www.w3.org/1999/xlink">
<title>FontAwesome</title>
<desc>Created using Figma</desc>
<g id="Canvas" transform="translate(-2643 -1069)">
<g id="FontAwesome">
<use xlink:href="#path0_fill" transform="translate(2643 1069)" fill="#6A7F84"/>
</g>
</g>
<defs>
<path id="path0_fill" d="M 15.2727 0L 0.727273 0C 0.329545 0 0 0.323661 0 0.714286L 0 19.2857C 0 19.6763 0.329545 20 0.727273 20L 15.2727 20C 15.6705 20 16 19.6763 16 19.2857L 16 0.714286C 16 0.323661 15.6705 0 15.2727 0ZM 5.81818 3.21429C 5.81818 3.01339 5.97727 2.85714 6.18182 2.85714L 6.90909 2.85714C 7.11364 2.85714 7.27273 3.01339 7.27273 3.21429L 7.27273 3.92857C 7.27273 4.12946 7.11364 4.28571 6.90909 4.28571L 6.18182 4.28571C 5.97727 4.28571 5.81818 4.12946 5.81818 3.92857L 5.81818 3.21429ZM 5.81818 6.07143C 5.81818 5.87054 5.97727 5.71429 6.18182 5.71429L 6.90909 5.71429C 7.11364 5.71429 7.27273 5.87054 7.27273 6.07143L 7.27273 6.78571C 7.27273 6.98661 7.11364 7.14286 6.90909 7.14286L 6.18182 7.14286C 5.97727 7.14286 5.81818 6.98661 5.81818 6.78571L 5.81818 6.07143ZM 5.81818 8.92857C 5.81818 8.72768 5.97727 8.57143 6.18182 8.57143L 6.90909 8.57143C 7.11364 8.57143 7.27273 8.72768 7.27273 8.92857L 7.27273 9.64286C 7.27273 9.84375 7.11364 10 6.90909 10L 6.18182 10C 5.97727 10 5.81818 9.84375 5.81818 9.64286L 5.81818 8.92857ZM 5.81818 11.7857C 5.81818 11.5848 5.97727 11.4286 6.18182 11.4286L 6.90909 11.4286C 7.11364 11.4286 7.27273 11.5848 7.27273 11.7857L 7.27273 12.5C 7.27273 12.7009 7.11364 12.8571 6.90909 12.8571L 6.18182 12.8571C 5.97727 12.8571 5.81818 12.7009 5.81818 12.5L 5.81818 11.7857ZM 4.36364 15.3571C 4.36364 15.558 4.20455 15.7143 4 15.7143L 3.27273 15.7143C 3.06818 15.7143 2.90909 15.558 2.90909 15.3571L 2.90909 14.6429C 2.90909 14.442 3.06818 14.2857 3.27273 14.2857L 4 14.2857C 4.20455 14.2857 4.36364 14.442 4.36364 14.6429L 4.36364 15.3571ZM 4.36364 12.5C 4.36364 12.7009 4.20455 12.8571 4 12.8571L 3.27273 12.8571C 3.06818 12.8571 2.90909 12.7009 2.90909 12.5L 2.90909 11.7857C 2.90909 11.5848 3.06818 11.4286 3.27273 11.4286L 4 11.4286C 4.20455 11.4286 4.36364 11.5848 4.36364 11.7857L 4.36364 12.5ZM 4.36364 9.64286C 4.36364 9.84375 4.20455 10 4 10L 3.27273 10C 3.06818 10 2.90909 9.84375 2.90909 9.64286L 2.90909 8.92857C 2.90909 8.72768 3.06818 8.57143 3.27273 8.57143L 4 8.57143C 4.20455 8.57143 4.36364 8.72768 4.36364 8.92857L 4.36364 9.64286ZM 4.36364 6.78571C 4.36364 6.98661 4.20455 7.14286 4 7.14286L 3.27273 7.14286C 3.06818 7.14286 2.90909 6.98661 2.90909 6.78571L 2.90909 6.07143C 2.90909 5.87054 3.06818 5.71429 3.27273 5.71429L 4 5.71429C 4.20455 5.71429 4.36364 5.87054 4.36364 6.07143L 4.36364 6.78571ZM 4.36364 3.92857C 4.36364 4.12946 4.20455 4.28571 4 4.28571L 3.27273 4.28571C 3.06818 4.28571 2.90909 4.12946 2.90909 3.92857L 2.90909 3.21429C 2.90909 3.01339 3.06818 2.85714 3.27273 2.85714L 4 2.85714C 4.20455 2.85714 4.36364 3.01339 4.36364 3.21429L 4.36364 3.92857ZM 10.1818 18.2143C 10.1818 18.4152 10.0227 18.5714 9.81818 18.5714L 6.18182 18.5714C 5.97727 18.5714 5.81818 18.4152 5.81818 18.2143L 5.81818 16.0714C 5.81818 15.8705 5.97727 15.7143 6.18182 15.7143L 9.81818 15.7143C 10.0227 15.7143 10.1818 15.8705 10.1818 16.0714L 10.1818 18.2143ZM 10.1818 12.5C 10.1818 12.7009 10.0227 12.8571 9.81818 12.8571L 9.09091 12.8571C 8.88636 12.8571 8.72727 12.7009 8.72727 12.5L 8.72727 11.7857C 8.72727 11.5848 8.88636 11.4286 9.09091 11.4286L 9.81818 11.4286C 10.0227 11.4286 10.1818 11.5848 10.1818 11.7857L 10.1818 12.5ZM 10.1818 9.64286C 10.1818 9.84375 10.0227 10 9.81818 10L 9.09091 10C 8.88636 10 8.72727 9.84375 8.72727 9.64286L 8.72727 8.92857C 8.72727 8.72768 8.88636 8.57143 9.09091 8.57143L 9.81818 8.57143C 10.0227 8.57143 10.1818 8.72768 10.1818 8.92857L 10.1818 9.64286ZM 10.1818 6.78571C 10.1818 6.98661 10.0227 7.14286 9.81818 7.14286L 9.09091 7.14286C 8.88636 7.14286 8.72727 6.98661 8.72727 6.78571L 8.72727 6.07143C 8.72727 5.87054 8.88636 5.71429 9.09091 5.71429L 9.81818 5.71429C 10.0227 5.71429 10.1818 5.87054 10.1818 6.07143L 10.1818 6.78571ZM 10.1818 3.92857C 10.1818 4.12946 10.0227 4.28571 9.81818 4.28571L 9.09091 4.28571C 8.88636 4.28571 8.72727 4.12946 8.72727 3.92857L 8.72727 3.21429C 8.72727 3.01339 8.88636 2.85714 9.09091 2.85714L 9.81818 2.85714C 10.0227 2.85714 10.1818 3.01339 10.1818 3.21429L 10.1818 3.92857ZM 13.0909 15.3571C 13.0909 15.558 12.9318 15.7143 12.7273 15.7143L 12 15.7143C 11.7955 15.7143 11.6364 15.558 11.6364 15.3571L 11.6364 14.6429C 11.6364 14.442 11.7955 14.2857 12 14.2857L 12.7273 14.2857C 12.9318 14.2857 13.0909 14.442 13.0909 14.6429L 13.0909 15.3571ZM 13.0909 12.5C 13.0909 12.7009 12.9318 12.8571 12.7273 12.8571L 12 12.8571C 11.7955 12.8571 11.6364 12.7009 11.6364 12.5L 11.6364 11.7857C 11.6364 11.5848 11.7955 11.4286 12 11.4286L 12.7273 11.4286C 12.9318 11.4286 13.0909 11.5848 13.0909 11.7857L 13.0909 12.5ZM 13.0909 9.64286C 13.0909 9.84375 12.9318 10 12.7273 10L 12 10C 11.7955 10 11.6364 9.84375 11.6364 9.64286L 11.6364 8.92857C 11.6364 8.72768 11.7955 8.57143 12 8.57143L 12.7273 8.57143C 12.9318 8.57143 13.0909 8.72768 13.0909 8.92857L 13.0909 9.64286ZM 13.0909 6.78571C 13.0909 6.98661 12.9318 7.14286 12.7273 7.14286L 12 7.14286C 11.7955 7.14286 11.6364 6.98661 11.6364 6.78571L 11.6364 6.07143C 11.6364 5.87054 11.7955 5.71429 12 5.71429L 12.7273 5.71429C 12.9318 5.71429 13.0909 5.87054 13.0909 6.07143L 13.0909 6.78571ZM 13.0909 3.92857C 13.0909 4.12946 12.9318 4.28571 12.7273 4.28571L 12 4.28571C 11.7955 4.28571 11.6364 4.12946 11.6364 3.92857L 11.6364 3.21429C 11.6364 3.01339 11.7955 2.85714 12 2.85714L 12.7273 2.85714C 12.9318 2.85714 13.0909 3.01339 13.0909 3.21429L 13.0909 3.92857Z"/>
</defs>
</svg>
