<svg width="22" height="20" viewBox="0 0 22 20" version="1.1" xmlns="http://www.w3.org/2000/svg" xmlns:xlink="http://www.w3.org/1999/xlink">
<title>desktop</title>
<desc>Created using Figma</desc>
<g id="Canvas" transform="translate(-2642 -1114)">
<g id="desktop">
<use xlink:href="#path0_fill" transform="translate(2642 1114)" fill="#6A7F84"/>
</g>
</g>
<defs>
<path id="path0_fill" d="M 19.9062 0.375C 20.3887 0.375 20.7969 0.560547 21.168 0.894531C 21.502 1.26562 21.6875 1.67383 21.6875 2.15625L 21.6875 14.0312C 21.6875 14.5508 21.502 14.959 21.168 15.293C 20.7969 15.6641 20.3887 15.8125 19.9062 15.8125L 12.7812 15.8125L 13.375 17.5938L 16.0469 17.5938C 16.2695 17.5938 16.4922 17.7051 16.6777 17.8535C 16.8262 18.0391 16.9375 18.2617 16.9375 18.4844C 16.9375 18.7441 16.8262 18.9668 16.6777 19.1152C 16.4922 19.3008 16.2695 19.375 16.0469 19.375L 5.95312 19.375C 5.69336 19.375 5.4707 19.3008 5.32227 19.1152C 5.13672 18.9668 5.0625 18.7441 5.0625 18.4844C 5.0625 18.2617 5.13672 18.0391 5.32227 17.8535C 5.4707 17.7051 5.69336 17.5938 5.95312 17.5938L 8.625 17.5938L 9.21875 15.8125L 2.09375 15.8125C 1.57422 15.8125 1.16602 15.6641 0.832031 15.293C 0.460938 14.959 0.3125 14.5508 0.3125 14.0312L 0.3125 2.15625C 0.3125 1.67383 0.460938 1.26562 0.832031 0.894531C 1.16602 0.560547 1.57422 0.375 2.09375 0.375L 19.9062 0.375ZM 19.3125 13.4375L 19.3125 2.75L 2.6875 2.75L 2.6875 13.4375L 19.3125 13.4375Z"/>
</defs>
</svg>
